<?xml version="1.0" encoding="utf-8"?>
<!-- Svg Vector Icons : http://www.onlinewebfonts.com/icon -->
<!DOCTYPE svg PUBLIC "-//W3C//DTD SVG 1.1//EN" "http://www.w3.org/Graphics/SVG/1.1/DTD/svg11.dtd">
<svg version="1.1" xmlns="http://www.w3.org/2000/svg" xmlns:xlink="http://www.w3.org/1999/xlink" x="0px" y="0px" viewBox="0 0 256 256" enable-background="new 0 0 256 256" xml:space="preserve">
<metadata> Svg Vector Icons : http://www.onlinewebfonts.com/icon </metadata>
<g><g><path fill="#000000" d="M180.5,230.7H78.7l-0.5,0c-14.4-1.6-41.7-12.3-41.7-41.1v-57.4C27.6,126.4,10,112.6,10,93.8c0-19.6,12.5-37.3,35.2-49.9C66.6,31.9,96,25.3,128,25.3c70.6,0,118,35.4,118,68.5c0,20.2-14,32.4-28.1,37.7v55.1C217.9,204.3,208,230.7,180.5,230.7z M79.7,214.3h100.8c20.9,0,21.1-26.6,21.1-27.7v-67.5l6.2-1.5c5.1-1.3,21.8-6.6,21.8-23.8C229.6,72,191,41.7,128,41.7c-57,0-101.6,22.9-101.6,52.1c0,11.2,14,22.1,22.3,26.7l4.2,2.3v66.8C52.8,209.7,76.2,213.8,79.7,214.3z"/></g></g>
</svg>